<?xml version="1.0" standalone="no"?>
<!DOCTYPE svg PUBLIC "-//W3C//DTD SVG 20010904//EN"
 "http://www.w3.org/TR/2001/REC-SVG-20010904/DTD/svg10.dtd">
<svg version="1.0" xmlns="http://www.w3.org/2000/svg"
 width="1172.000000pt" height="1172.000000pt" viewBox="0 0 1172.000000 1172.000000"
 preserveAspectRatio="xMidYMid meet">

<g transform="translate(0.000000,1172.000000) scale(0.100000,-0.100000)"
fill="#000000" stroke="none">
<path d="M5805 9104 c-16 -8 -35 -21 -41 -27 -7 -7 -249 -433 -539 -947 -290
-514 -531 -939 -535 -943 -4 -5 -475 -100 -1046 -213 -572 -112 -1055 -210
-1074 -217 -19 -7 -45 -28 -58 -47 -32 -47 -27 -127 10 -168 14 -15 359 -390
767 -834 407 -444 750 -812 762 -818 28 -16 91 -15 125 1 63 30 92 119 60 181
-10 20 -1083 1196 -1304 1430 -20 21 -34 40 -31 42 2 2 437 89 967 193 740
146 969 195 990 210 17 12 204 333 510 874 265 470 486 859 490 865 4 7 210
-352 482 -839 261 -468 485 -862 497 -877 13 -15 35 -32 50 -38 25 -10 1900
-382 1924 -382 6 0 9 -4 7 -9 -1 -4 -300 -331 -663 -726 -363 -394 -665 -727
-672 -739 -7 -11 -12 -42 -13 -68 0 -88 81 -148 170 -126 37 10 109 86 802
840 420 456 768 839 775 851 28 51 5 140 -44 173 -16 10 -419 94 -1080 224
-580 114 -1059 212 -1063 216 -5 5 -241 425 -526 934 -284 509 -526 936 -538
948 -46 51 -106 65 -161 36z"/>
<path d="M3207 8702 l-97 -97 95 -95 95 -95 -95 -95 -95 -95 98 -98 97 -97 95
95 95 95 95 -95 95 -95 98 98 97 97 -95 95 -95 95 95 95 95 95 -98 98 -97 97
-95 -95 -95 -95 -95 95 -95 95 -98 -98z m381 -195 l92 -92 -93 -93 -92 -92
-95 95 -95 95 90 90 c49 49 92 90 95 90 3 0 47 -42 98 -93z"/>
<path d="M8053 8565 c-242 -53 -410 -294 -373 -532 13 -81 63 -192 114 -249
46 -53 130 -109 204 -136 81 -29 224 -29 306 1 170 61 288 202 318 379 25 146
-27 299 -137 408 -72 71 -141 108 -240 129 -84 18 -111 18 -192 0z m210 -301
c130 -91 110 -288 -35 -349 -86 -36 -187 -5 -243 74 -26 37 -30 51 -30 111 0
60 4 74 30 111 65 93 187 116 278 53z"/>
<path d="M5696 7184 c-403 -90 -690 -405 -724 -798 -25 -285 80 -667 258 -941
63 -96 223 -257 303 -304 170 -99 367 -121 549 -61 325 109 601 532 677 1037
15 100 14 277 -3 365 -62 324 -305 586 -633 684 -113 34 -318 42 -427 18z
m300 -277 c14 -13 -27 -76 -81 -125 -57 -53 -152 -102 -241 -127 -70 -19 -283
-32 -308 -18 -15 8 -13 15 22 59 81 102 234 192 372 218 40 7 228 2 236 -7z
m26 -478 c90 -45 234 -79 366 -86 l112 -6 0 -41 c0 -129 -53 -354 -120 -508
-166 -387 -420 -548 -670 -427 -85 42 -208 165 -273 276 -116 194 -197 473
-197 674 l0 60 58 -8 c31 -4 118 -8 192 -8 154 1 242 17 365 69 44 19 86 34
93 35 7 0 40 -13 74 -30z"/>
<path d="M5358 5037 c-15 -7 -67 -48 -115 -93 l-88 -81 -265 -102 c-349 -135
-384 -154 -496 -266 -77 -76 -98 -105 -137 -185 -83 -168 -80 -147 -87 -748
l-5 -533 -185 -82 c-102 -45 -195 -88 -207 -95 -52 -29 -71 -119 -39 -181 21
-39 94 -76 135 -68 14 3 467 200 1006 438 539 237 985 432 990 432 6 -1 447
-194 981 -431 535 -237 983 -434 997 -437 36 -10 89 10 123 46 25 26 29 38 29
89 0 85 -20 102 -250 204 l-190 85 -6 528 c-6 564 -4 550 -59 696 -49 131
-178 281 -308 358 -33 19 -187 84 -341 144 l-280 109 -90 84 c-57 52 -104 87
-126 93 -44 12 -104 -3 -132 -33 -11 -13 -93 -125 -183 -250 -89 -126 -165
-228 -169 -227 -3 0 -85 108 -181 241 -146 200 -182 243 -215 259 -46 21 -69
23 -107 6z m1422 -554 c113 -44 225 -90 250 -103 60 -30 152 -124 184 -188 54
-106 56 -130 56 -599 0 -238 -3 -433 -7 -433 -5 1 -60 24 -123 53 l-115 53 -3
373 c-2 359 -3 374 -23 402 -42 59 -125 77 -186 39 -61 -37 -63 -47 -63 -385
0 -168 -2 -305 -4 -305 -3 0 -193 83 -422 185 -328 145 -426 185 -459 185 -34
0 -134 -40 -463 -185 -231 -102 -423 -185 -426 -185 -3 0 -6 135 -6 301 0 256
-2 306 -16 335 -47 98 -190 98 -247 -1 -8 -14 -14 -137 -17 -393 l-5 -373
-113 -50 c-62 -27 -115 -49 -118 -49 -9 0 -3 877 7 919 27 118 122 243 226
299 57 30 441 182 460 182 6 0 56 -118 112 -262 136 -349 133 -342 187 -369
31 -15 56 -20 79 -16 19 3 98 49 186 108 149 99 154 102 179 87 14 -8 75 -47
135 -86 61 -39 121 -71 135 -72 111 -9 120 3 270 339 69 154 130 279 135 277
6 -2 102 -40 215 -83z"/>
<path d="M8090 4545 l-95 -95 95 -95 95 -95 -98 -97 -97 -98 97 -97 98 -98 97
97 98 98 98 -98 97 -97 95 95 95 95 -98 97 -97 98 -95 -95 -95 -95 -95 95 -95
95 95 95 95 95 95 -95 95 -95 98 98 97 97 -98 97 -97 98 -98 -98 -97 -97 -95
95 -95 95 -95 -95z"/>
<path d="M2980 4496 c-211 -46 -351 -250 -318 -461 41 -266 328 -421 570 -308
161 76 246 217 236 397 -5 102 -37 175 -109 251 -59 62 -145 109 -228 125 -65
12 -80 12 -151 -4z m146 -282 c22 -10 40 -31 55 -60 77 -160 -156 -269 -237
-112 -30 59 -4 137 57 170 42 22 81 23 125 2z"/>
<path d="M4770 2862 c-42 -21 -80 -75 -80 -114 0 -68 50 -132 115 -144 48 -9
119 25 141 67 36 70 11 155 -56 190 -43 24 -75 24 -120 1z"/>
<path d="M5150 2862 c-93 -47 -106 -166 -24 -231 40 -32 85 -36 137 -13 103
46 107 190 7 243 -43 24 -75 24 -120 1z"/>
<path d="M5530 2862 c-93 -47 -106 -166 -24 -231 40 -32 85 -36 137 -13 103
46 107 190 7 243 -43 24 -75 24 -120 1z"/>
<path d="M5910 2862 c-93 -47 -106 -166 -24 -231 38 -30 83 -35 132 -16 106
43 114 192 12 246 -43 24 -75 24 -120 1z"/>
<path d="M6290 2862 c-93 -47 -106 -166 -24 -231 38 -30 83 -35 132 -16 106
43 114 192 12 246 -43 24 -75 24 -120 1z"/>
<path d="M6670 2862 c-93 -47 -106 -166 -24 -231 38 -30 83 -35 132 -16 106
43 112 200 9 248 -45 22 -73 21 -117 -1z"/>
</g>
</svg>
